<?xml version="1.0" encoding="UTF-8"?>
<svg version="1.1" xmlns="http://www.w3.org/2000/svg" width="372" height="139">
<path d="M0 0 C2.69535659 2.69535659 2.71066532 5.30335092 3.125 8.9375 C3.20991699 9.65736084 3.29483398 10.37722168 3.38232422 11.11889648 C4.56542293 22.68922104 4.16687201 34.38699175 4 46 C5.29808594 46.13277344 6.59617187 46.26554687 7.93359375 46.40234375 C12.68371065 46.93013452 17.36289046 47.70166004 22.0625 48.5625 C23.21782227 48.77036133 23.21782227 48.77036133 24.39648438 48.98242188 C26.26480455 49.3189516 28.13247494 49.65908555 30 50 C30.07516846 48.62618164 30.07516846 48.62618164 30.15185547 47.22460938 C30.34504996 43.74272772 30.54327417 40.261201 30.74462891 36.77978516 C30.82989858 35.28868369 30.91330821 33.79747439 30.99462891 32.30615234 C31.43814959 24.19684198 31.99251797 16.10505901 32.8828125 8.03125 C33.02348145 6.72736328 33.16415039 5.42347656 33.30908203 4.08007812 C34 1 34 1 37 -1 C40.125 -1.1875 40.125 -1.1875 43 -1 C44 -0 44 -0 44.15234375 3.8671875 C44.09052657 9.35698647 43.34679204 14.69902594 42.5625 20.125 C41.45323685 28.13341725 40.59502102 36.06182001 40.2109375 44.13671875 C40.03190908 46.56686373 39.69079548 48.67281194 39 51 C40.58467728 50.71572583 42.1677057 50.42225182 43.75 50.125 C44.63171875 49.96257813 45.5134375 49.80015625 46.421875 49.6328125 C48.89733667 49.02519918 50.82641115 48.32177701 53 47 C53.495 46.01 53.495 46.01 54 45 C55.32 45 56.64 45 58 45 C57.74706737 48.41459045 56.74051411 49.24795319 54.1875 51.6875 C50.04262723 54.69456456 47.2860325 55.1365593 42.25 55.0625 C41.45078125 55.05347656 40.6515625 55.04445312 39.828125 55.03515625 C39.22484375 55.02355469 38.6215625 55.01195312 38 55 C38.15726562 55.83402344 38.31453125 56.66804688 38.4765625 57.52734375 C39.03364686 61.22322431 39.21927469 64.82880031 39.375 68.5625 C39.79605694 82.37226475 39.79605694 82.37226475 46 94 C48.50268425 94.59375068 48.50268425 94.59375068 51 94 C58.75001731 87.86853667 62.4696521 74.96374251 64.5 65.75 C66.17750187 58.41215554 69.29160202 52.52783812 74.8125 47.375 C79.04079749 45.55102853 82.46751791 45.21490935 87 46 C90.5 47.5625 90.5 47.5625 93 50 C93.875 53.75 93.875 53.75 94 57 C92.68 57 91.36 57 90 57 C89.7525 56.195625 89.505 55.39125 89.25 54.5625 C88.24785989 51.93104559 88.24785989 51.93104559 86.1875 50.875 C83.39976079 51.03429938 82.13553431 52.04527579 80.30078125 54.1015625 C74.86936922 62.02848816 73.18433622 70.54857939 73 80 C77.03252061 78.65582646 77.51301932 76.84823546 79.5625 73.1875 C80.16191406 72.12917969 80.76132813 71.07085937 81.37890625 69.98046875 C82.63436182 67.67224561 83.85043255 65.36204656 85 63 C87.64 63 90.28 63 93 63 C94.14037113 66.41313877 93.82461648 68.76319258 93.0625 72.25 C92.11981887 76.96340567 91.81905215 81.2048819 92 86 C96.35916389 84.52429196 97.87764641 81.34061068 99.9375 77.5 C100.28377441 76.8699707 100.63004883 76.23994141 100.98681641 75.59082031 C101.68064519 74.3207937 102.36889364 73.04770109 103.05126953 71.77148438 C103.87136184 70.24019518 104.7130214 68.72049292 105.55859375 67.203125 C108.24298973 62.2007491 109.73264777 57.65897374 110.54296875 52.03125 C111 50 111 50 113 48 C118.56818182 48.56818182 118.56818182 48.56818182 120 50 C120.01675229 51.83239929 119.96271908 53.66553558 119.87890625 55.49609375 C119.83056641 56.61177734 119.78222656 57.72746094 119.73242188 58.87695312 C119.67634766 60.05193359 119.62027344 61.22691406 119.5625 62.4375 C119.45946949 64.74869053 119.35659686 67.0598881 119.25390625 69.37109375 C119.20564697 70.40161865 119.1573877 71.43214355 119.10766602 72.49389648 C119.0431774 73.99497505 119 75.49753681 119 77 C123.48726267 75.15397422 124.60473215 72.79439725 126.64453125 68.5390625 C128.80274456 62.90407328 130.31165115 57.07757065 131.76904297 51.2253418 C132.00123535 50.33758057 132.23342773 49.44981934 132.47265625 48.53515625 C132.67125244 47.734729 132.86984863 46.93430176 133.07446289 46.10961914 C134.23417805 43.46622725 135.54163192 42.46323718 138 41 C140.125 41.0625 140.125 41.0625 142 42 C145.99407676 47.46557872 145.26103105 56.43862021 145.5625 62.9375 C145.60568359 63.81212891 145.64886719 64.68675781 145.69335938 65.58789062 C145.79846901 67.72511995 145.89963985 69.86254238 146 72 C147.81584234 70.37860535 149.6277162 68.75313264 151.4375 67.125 C151.95376953 66.66480469 152.47003906 66.20460938 153.00195312 65.73046875 C156.80025488 62.30454952 158.0615046 60.62668229 158.39453125 55.58984375 C159.7063217 37.75524563 161.48223322 17.58917125 173 3 C176.79247686 0.47168209 179.54949712 0.38677831 184 1 C186.67431489 2.81163267 186.95920359 3.87761077 188 7 C189.8544919 23.62962413 182.56167846 42.34731298 173.0625 55.75 C169.18357153 61.56405386 169.34415896 66.21161936 170 73 C170.04769531 74.09957031 170.09539062 75.19914062 170.14453125 76.33203125 C170.46749028 82.78370119 171.03375584 89.15266702 174 95 C174.66 95.33 175.32 95.66 176 96 C187.32701231 90.44611009 192.27945551 74.97241469 197 64 C197.92675188 61.21974437 198.21149671 59.16810508 198.39453125 56.2734375 C199.66387927 38.2103524 201.320399 17.79416126 213 3 C216.79247686 0.47168209 219.54949712 0.38677831 224 1 C226.67431489 2.81163267 226.95920359 3.87761077 228 7 C229.8544919 23.62962413 222.56167846 42.34731298 213.0625 55.75 C209.18357153 61.56405386 209.34415896 66.21161936 210 73 C210.04769531 74.09957031 210.09539062 75.19914062 210.14453125 76.33203125 C210.46749028 82.78370119 211.03375584 89.15266702 214 95 C214.66 95.33 215.32 95.66 216 96 C228.98468203 89.6649855 234.94589305 69.18610024 239.796875 56.515625 C242.08390919 51.73364442 245.08178768 48.07657854 250 46 C254.71847362 45.28349104 258.12217069 45.60811192 262.5 47.5625 C265.65309479 50.63676742 265.83383414 52.67968759 266 57 C264.68 57 263.36 57 262 57 C261.7525 56.195625 261.505 55.39125 261.25 54.5625 C260.24785989 51.93104559 260.24785989 51.93104559 258.1875 50.875 C255.39976079 51.03429938 254.13553431 52.04527579 252.30078125 54.1015625 C246.86936922 62.02848816 245.18433622 70.54857939 245 80 C249.03252061 78.65582646 249.51301932 76.84823546 251.5625 73.1875 C252.16191406 72.12917969 252.76132812 71.07085937 253.37890625 69.98046875 C254.63436182 67.67224561 255.85043255 65.36204656 257 63 C259.64 63 262.28 63 265 63 C266.14037113 66.41313877 265.82461648 68.76319258 265.0625 72.25 C264.11981887 76.96340567 263.81905215 81.2048819 264 86 C268.33974622 84.52448628 269.83071215 81.39198355 271.875 77.5625 C272.21724609 76.9422998 272.55949219 76.32209961 272.91210938 75.68310547 C273.9516892 73.79414827 274.97633189 71.89761606 276 70 C276.61101562 68.88753906 277.22203125 67.77507812 277.8515625 66.62890625 C279.24422258 64.09109677 280.62695346 61.54845759 282 59 C282.99 59 283.98 59 285 59 C284.49555177 64.87253877 282.04521152 69.3351087 279.3125 74.4375 C278.67924805 75.66823242 278.67924805 75.66823242 278.03320312 76.92382812 C271.51503154 89.24248423 271.51503154 89.24248423 266 92 C262.625 92.375 262.625 92.375 259 92 C255.14853972 88.5649138 254.1431506 84.85839006 253 80 C252.319375 80.825 251.63875 81.65 250.9375 82.5 C248 85 248 85 244.4375 85.5 C240.9097378 84.98687095 239.44411643 84.53812091 237 82 C236.67 81.01 236.34 80.02 236 79 C235.48050781 79.86882812 234.96101563 80.73765625 234.42578125 81.6328125 C224.23671278 98.53951765 224.23671278 98.53951765 217 101 C213.11824147 100.93189897 210.6991357 100.39021527 207.3125 98.5 C201.1235975 91.8092946 199.76915113 82.67152105 198 74 C197.41992188 75.14597656 196.83984375 76.29195313 196.2421875 77.47265625 C195.45361729 79.00285796 194.66452688 80.53279167 193.875 82.0625 C193.49601562 82.81466797 193.11703125 83.56683594 192.7265625 84.34179688 C189.08061447 91.36024683 184.87108758 98.42984895 177 101 C173.11824147 100.93189897 170.6991357 100.39021527 167.3125 98.5 C159.71628858 90.28787955 159.42481956 78.61058808 158 68 C150.06645584 72.57789677 150.06645584 72.57789677 145.38183594 80.08056641 C144.74893944 84.89621946 144.94167272 89.73212802 145.02929688 94.578125 C144.89970381 105.29115211 142.1751646 116.47072796 135.6875 125.0625 C133 127 133 127 129.4375 127.5625 C125.39591677 126.90115002 124.45407289 126.20348869 122 123 C119.65324747 109.60970614 124.97552004 97.11623954 132 86 C132.72703125 85.29359375 133.4540625 84.5871875 134.203125 83.859375 C136.99121454 79.42267599 136.18032633 75.2728643 135.75 70.1875 C135.68425781 69.20845703 135.61851562 68.22941406 135.55078125 67.22070312 C135.38626852 64.81176668 135.20211749 62.4060244 135 60 C134.56300781 61.2684375 134.56300781 61.2684375 134.1171875 62.5625 C128.21636616 78.89181692 128.21636616 78.89181692 122 82 C115.81497797 82.57268722 115.81497797 82.57268722 112.6875 80.375 C110.77480675 77.68306135 109.98344768 75.1350079 109 72 C108.48050781 72.86882812 107.96101562 73.73765625 107.42578125 74.6328125 C98.22665155 89.88667422 98.22665155 89.88667422 94 92 C90.625 92.375 90.625 92.375 87 92 C83.14853972 88.5649138 82.1431506 84.85839006 81 80 C80.319375 80.825 79.63875 81.65 78.9375 82.5 C76 85 76 85 72.4375 85.5 C68.85467084 84.97886121 67.70768231 84.22776488 65 82 C64.55269531 82.81984375 64.10539063 83.6396875 63.64453125 84.484375 C63.03996094 85.56203125 62.43539062 86.6396875 61.8125 87.75 C61.22082031 88.81734375 60.62914062 89.8846875 60.01953125 90.984375 C57.57125945 94.64020833 54.9347311 97.03263445 51 99 C46.17819547 99.48218045 43.98585584 99.56876299 39.75 97.125 C33.14681035 90.73713175 31.22596575 79.571599 30.92285156 70.75634766 C30.83718046 65.50220172 30.89597113 60.25345794 31 55 C30.14019531 54.89042969 29.28039062 54.78085937 28.39453125 54.66796875 C20.12116028 53.55823633 12.10474707 52.01945525 4 50 C4.04640625 50.8765625 4.0928125 51.753125 4.140625 52.65625 C4.75273885 74.16767965 1.39100184 101.91824361 -13 119 C-19.69673697 125.30055597 -25.83507388 127.50685499 -35 127.3046875 C-41.22713612 126.67224399 -45.25768815 124.06314673 -49.5625 119.625 C-60.70784057 105.83327719 -64.30607952 89.50565769 -64.4375 72.1875 C-64.44773193 71.15004639 -64.45796387 70.11259277 -64.46850586 69.04370117 C-64.36866472 60.28351385 -63.23155234 51.27289258 -58.0625 43.9375 C-57.33740234 42.86822266 -57.33740234 42.86822266 -56.59765625 41.77734375 C-53.72703067 38.58386053 -51.65980674 38.06739961 -47.3671875 37.62890625 C-45.8701803 37.58824052 -44.37255105 37.5675101 -42.875 37.5625 C-42.06764404 37.55863281 -41.26028809 37.55476563 -40.4284668 37.55078125 C-28.76536601 37.76008262 -17.34918535 40.50187701 -6 43 C-6.1539624 42.30487305 -6.3079248 41.60974609 -6.46655273 40.89355469 C-7.03318099 37.82001779 -7.31043356 34.82020159 -7.53515625 31.703125 C-7.66567383 29.89328125 -7.66567383 29.89328125 -7.79882812 28.046875 C-7.9293457 26.16742188 -7.9293457 26.16742188 -8.0625 24.25 C-8.15337891 23.0125 -8.24425781 21.775 -8.33789062 20.5 C-8.799053 13.98131376 -9.10608218 7.53466217 -9 1 C-5.52495122 -0.92236741 -3.85856625 -1.21849461 0 0 Z M181 6 C170.74512365 18.37657491 170.73982607 37.65834358 170 53 C173.38437436 49.89983239 174.81727848 46.25285134 176.5 42.0625 C176.80824707 41.30122803 177.11649414 40.53995605 177.43408203 39.75561523 C183.61367402 24.1663062 183.61367402 24.1663062 183.0625 7.875 C182.711875 7.25625 182.36125 6.6375 182 6 C181.67 6 181.34 6 181 6 Z M221 6 C210.74512365 18.37657491 210.73982607 37.65834358 210 53 C213.38437436 49.89983239 214.81727848 46.25285134 216.5 42.0625 C216.80824707 41.30122803 217.11649414 40.53995605 217.43408203 39.75561523 C223.61367402 24.1663062 223.61367402 24.1663062 223.0625 7.875 C222.711875 7.25625 222.36125 6.6375 222 6 C221.67 6 221.34 6 221 6 Z M-55 46 C-56.38993375 48.33094646 -56.38993375 48.33094646 -57.25 50.875 C-57.56453125 51.69742188 -57.8790625 52.51984375 -58.203125 53.3671875 C-63.33597835 70.32573238 -60.58443641 90.69775702 -53.1875 106.5625 C-49.58591009 113.11739364 -45.85076662 119.21177009 -38.6875 122.125 C-33.48479796 123.46991617 -28.96809531 123.00326424 -24 121 C-13.92724245 114.90703827 -10.55846161 104.26212112 -7.84765625 93.375 C-4.73695946 78.52081998 -4.68597747 63.10797265 -5 48 C-16.73691277 43.67894754 -30.08192862 41.65842168 -42.5625 41.5 C-43.24546143 41.48179199 -43.92842285 41.46358398 -44.63208008 41.44482422 C-49.33227736 41.5029612 -51.76679995 42.62168325 -55 46 Z M136 88 C129.82541237 98.27039742 125.0001545 108.8018849 126 121 C126.33 121.66 126.66 122.32 127 123 C128.92309422 122.96044102 128.92309422 122.96044102 131 122 C137.41697826 112.37453261 136.53968863 99.12015367 137 88 C136.67 88 136.34 88 136 88 Z " fill="#1F1F1F" transform="translate(74,6)"/>
<path d="M0 0 C0.99 0 1.98 0 3 0 C2.25 5.75 2.25 5.75 0 8 C-0.66 8 -1.32 8 -2 8 C-2.99 8.495 -2.99 8.495 -4 9 C-2.80100302 5.9168649 -1.52299523 2.93720508 0 0 Z " fill="#3E3E3E" transform="translate(288,52)"/>
<path d="M0 0 C0.99 0 1.98 0 3 0 C2.25 5.75 2.25 5.75 0 8 C-0.66 8 -1.32 8 -2 8 C-2.99 8.495 -2.99 8.495 -4 9 C-2.80100302 5.9168649 -1.52299523 2.93720508 0 0 Z " fill="#3E3E3E" transform="translate(248,52)"/>
<path d="M0 0 C0.66 0.33 1.32 0.66 2 1 C-0.64 3.64 -3.28 6.28 -6 9 C-6 6 -6 6 -3.5625 3.375 C-2.716875 2.59125 -1.87125 1.8075 -1 1 C-0.67 0.67 -0.34 0.34 0 0 Z " fill="#555555" transform="translate(322,53)"/>
<path d="M0 0 C0.66 0.33 1.32 0.66 2 1 C-0.64 3.64 -3.28 6.28 -6 9 C-6 6 -6 6 -3.5625 3.375 C-2.716875 2.59125 -1.87125 1.8075 -1 1 C-0.67 0.67 -0.34 0.34 0 0 Z " fill="#555555" transform="translate(150,53)"/>
<path d="M0 0 C0.66 0.33 1.32 0.66 2 1 C-0.31 3.31 -2.62 5.62 -5 8 C-5 5 -5 5 -2.5 2.3125 C-1.675 1.549375 -0.85 0.78625 0 0 Z " fill="#4F4F4F" transform="translate(21,45)"/>
</svg>
